<?xml version="1.0" standalone="no"?>
<!DOCTYPE svg PUBLIC "-//W3C//DTD SVG 20010904//EN"
 "http://www.w3.org/TR/2001/REC-SVG-20010904/DTD/svg10.dtd">
<svg version="1.0" xmlns="http://www.w3.org/2000/svg"
 width="384.000000pt" height="403.000000pt" viewBox="0 0 384.000000 403.000000"
 preserveAspectRatio="xMidYMid meet">
<metadata>
Created by potrace 1.15, written by Peter Selinger 2001-2017
</metadata>
<g transform="translate(0.000000,403.000000) scale(0.100000,-0.100000)"
fill="#000000" stroke="none">
<path d="M531 4007 c-37 -19 -65 -63 -65 -102 l0 -35 -66 0 c-84 0 -174 -16
-221 -41 -51 -26 -119 -97 -149 -155 l-25 -49 0 -1680 0 -1680 29 -58 c36 -70
89 -120 165 -156 l56 -26 1435 -3 1435 -2 357 357 358 358 0 1425 c0 1012 -3
1437 -11 1465 -18 65 -75 140 -137 182 -66 43 -142 62 -250 63 -68 0 -73 1
-67 19 7 24 -15 80 -42 104 -69 61 -185 5 -185 -88 l0 -35 -225 0 c-217 0
-224 1 -218 19 8 25 -16 80 -45 106 -15 14 -36 20 -70 20 -34 0 -55 -6 -70
-20 -29 -26 -53 -81 -45 -106 6 -18 -1 -19 -220 -19 l-227 0 5 22 c7 26 -13
77 -41 101 -26 24 -90 32 -121 15 -37 -20 -63 -62 -63 -102 l0 -36 -222 0
-221 0 -1 41 c-3 84 -100 135 -172 89 -37 -23 -66 -81 -57 -111 6 -18 -1 -19
-218 -19 l-225 0 0 41 c-1 79 -90 133 -161 96z m3129 -1894 l0 -1297 -22 -23
c-21 -22 -27 -23 -182 -23 -89 0 -177 -5 -197 -10 -47 -13 -114 -72 -142 -124
-19 -37 -22 -60 -25 -216 -3 -161 -5 -177 -25 -198 l-20 -22 -1367 0 -1366 0
-44 23 c-24 12 -53 35 -64 50 -21 28 -21 32 -24 1583 l-2 1554 1740 0 1740 0
0 -1297z"/>
<path d="M1254 2404 c-162 -105 -154 -96 -154 -171 0 -88 11 -90 132 -25 l98
52 0 -355 0 -355 -103 0 c-67 0 -107 -4 -115 -12 -16 -16 -16 -130 0 -146 9
-9 95 -12 325 -12 l313 0 10 26 c13 33 13 100 0 125 -9 17 -22 19 -105 19
l-95 0 0 449 c0 247 -3 456 -6 465 -5 13 -23 16 -94 16 l-87 0 -119 -76z"/>
<path d="M2278 2469 c-21 -8 -61 -70 -200 -316 -95 -169 -178 -320 -185 -337
-16 -42 -16 -168 0 -189 10 -15 39 -17 232 -19 l220 -3 3 -105 c2 -68 7 -107
15 -112 14 -9 158 -11 181 -2 13 5 16 25 16 115 l0 109 55 0 c64 0 75 13 75
85 0 64 -13 85 -53 85 -18 0 -42 3 -54 6 l-23 6 0 333 0 333 -31 11 c-39 13
-214 13 -251 0z m72 -434 l0 -245 -144 0 -145 0 140 245 c77 135 142 245 145
245 2 0 4 -110 4 -245z"/>
</g>
</svg>
