<?xml version="1.0" standalone="no"?>
<!DOCTYPE svg PUBLIC "-//W3C//DTD SVG 20010904//EN"
 "http://www.w3.org/TR/2001/REC-SVG-20010904/DTD/svg10.dtd">
<svg version="1.0" xmlns="http://www.w3.org/2000/svg"
 width="384.000000pt" height="403.000000pt" viewBox="0 0 384.000000 403.000000"
 preserveAspectRatio="xMidYMid meet">
<metadata>
Created by potrace 1.15, written by Peter Selinger 2001-2017
</metadata>
<g transform="translate(0.000000,403.000000) scale(0.100000,-0.100000)"
fill="#000000" stroke="none">
<path d="M531 4007 c-37 -19 -65 -63 -65 -102 l0 -35 -66 0 c-84 0 -174 -16
-221 -41 -51 -26 -119 -97 -149 -155 l-25 -49 0 -1680 0 -1680 29 -58 c36 -70
89 -120 165 -156 l56 -26 1440 -3 1440 -2 352 352 353 353 0 1430 c0 1016 -3
1442 -11 1470 -18 65 -75 140 -137 182 -66 43 -142 62 -250 63 -68 0 -73 1
-67 19 7 24 -15 80 -42 104 -69 61 -185 5 -185 -88 l0 -35 -225 0 c-217 0
-224 1 -218 19 8 25 -16 80 -45 106 -15 14 -36 20 -70 20 -34 0 -55 -6 -70
-20 -29 -26 -53 -81 -45 -106 6 -18 -1 -19 -220 -19 l-227 0 5 22 c7 26 -13
77 -41 101 -26 24 -90 32 -121 15 -37 -20 -63 -62 -63 -102 l0 -36 -222 0
-221 0 -1 41 c-3 84 -100 135 -172 89 -37 -23 -66 -81 -57 -111 6 -18 -1 -19
-218 -19 l-225 0 0 41 c-1 79 -90 133 -161 96z m3132 -914 c4 -174 7 -757 7
-1296 l0 -981 -22 -23 c-21 -22 -27 -23 -182 -23 -89 0 -177 -5 -197 -10 -47
-13 -114 -72 -142 -124 -19 -37 -22 -60 -25 -216 -3 -161 -5 -177 -25 -198
l-20 -22 -1372 0 -1371 0 -44 23 c-24 12 -53 35 -64 50 -21 28 -21 32 -24
1583 l-2 1554 1738 0 1739 0 6 -317z"/>
<path d="M1293 2396 c-142 -46 -161 -70 -154 -196 3 -67 12 -69 93 -26 61 34
83 40 147 44 67 4 79 1 104 -18 69 -55 74 -142 13 -266 -27 -53 -68 -106 -158
-204 -215 -233 -210 -226 -222 -300 -7 -40 7 -100 26 -112 7 -4 165 -8 351 -8
l337 0 10 26 c13 32 13 95 0 128 l-9 26 -221 2 -221 3 136 145 c219 232 275
331 275 489 0 76 -4 95 -27 142 -33 64 -92 112 -165 134 -80 23 -227 19 -315
-9z"/>
<path d="M2204 2334 c-65 -42 -127 -83 -136 -91 -22 -20 -31 -64 -23 -113 9
-53 25 -52 141 11 l94 50 0 -355 0 -356 -109 0 c-124 0 -121 3 -121 -90 0 -36
5 -62 14 -69 9 -8 104 -11 327 -9 l314 3 9 43 c6 26 6 58 0 80 l-9 37 -97 3
-98 3 0 452 c0 339 -3 456 -12 465 -7 7 -43 12 -93 12 l-82 0 -119 -76z"/>
</g>
</svg>
