<?xml version="1.0" standalone="no"?>
<!DOCTYPE svg PUBLIC "-//W3C//DTD SVG 20010904//EN"
 "http://www.w3.org/TR/2001/REC-SVG-20010904/DTD/svg10.dtd">
<svg version="1.0" xmlns="http://www.w3.org/2000/svg"
 width="384.000000pt" height="403.000000pt" viewBox="0 0 384.000000 403.000000"
 preserveAspectRatio="xMidYMid meet">
<metadata>
Created by potrace 1.15, written by Peter Selinger 2001-2017
</metadata>
<g transform="translate(0.000000,403.000000) scale(0.100000,-0.100000)"
fill="#000000" stroke="none">
<path d="M531 4007 c-37 -19 -65 -63 -65 -102 l0 -35 -66 0 c-84 0 -174 -16
-221 -41 -51 -26 -119 -97 -149 -155 l-25 -49 0 -1680 0 -1680 29 -58 c36 -70
89 -120 165 -156 l56 -26 1435 -3 1435 -2 358 357 357 357 0 1426 c0 1012 -3
1437 -11 1465 -18 65 -75 140 -137 182 -66 43 -142 62 -250 63 -68 0 -73 1
-67 19 7 24 -15 80 -42 104 -69 61 -185 5 -185 -88 l0 -35 -225 0 c-217 0
-224 1 -218 19 8 25 -16 80 -45 106 -15 14 -36 20 -70 20 -34 0 -55 -6 -70
-20 -29 -26 -53 -81 -45 -106 6 -18 -1 -19 -220 -19 l-227 0 5 22 c7 26 -13
77 -41 101 -26 24 -90 32 -121 15 -37 -20 -63 -62 -63 -102 l0 -36 -222 0
-221 0 -1 41 c-3 84 -100 135 -172 89 -37 -23 -66 -81 -57 -111 6 -18 -1 -19
-218 -19 l-225 0 0 41 c-1 79 -90 133 -161 96z m3129 -809 c0 -117 0 -701 0
-1297 l0 -1085 -22 -23 c-21 -22 -27 -23 -182 -23 -89 0 -177 -5 -197 -10 -47
-13 -114 -72 -142 -124 -19 -37 -22 -60 -25 -216 -3 -161 -5 -177 -25 -198
l-20 -22 -1367 0 -1366 0 -44 23 c-24 12 -53 35 -64 50 -21 28 -21 32 -24
1583 l-2 1554 1740 0 1740 0 0 -212z"/>
<path d="M1253 2416 c-142 -46 -161 -70 -154 -196 3 -67 12 -69 93 -26 61 34
83 40 147 44 67 4 79 1 104 -18 69 -55 74 -142 13 -266 -27 -53 -68 -106 -158
-204 -215 -233 -210 -226 -222 -300 -7 -40 7 -100 26 -112 7 -4 165 -8 351 -8
l337 0 10 26 c13 32 13 95 0 128 l-9 26 -221 2 -221 3 136 145 c219 232 275
331 275 489 0 76 -4 95 -27 142 -33 64 -92 112 -165 134 -80 23 -227 19 -315
-9z"/>
<path d="M2195 2434 c-54 -14 -124 -56 -162 -97 -74 -80 -93 -210 -44 -306 19
-36 82 -101 130 -132 l25 -16 -61 -41 c-134 -91 -179 -202 -137 -341 42 -142
237 -220 460 -182 187 32 284 134 284 300 -1 108 -46 183 -152 252 l-58 37 50
37 c86 63 130 145 130 242 0 99 -48 176 -137 219 -53 25 -70 28 -183 30 -69 2
-134 1 -145 -2z m195 -172 c25 -12 39 -28 49 -57 22 -64 8 -109 -50 -166 -28
-27 -57 -49 -65 -49 -26 0 -113 61 -134 94 -40 66 -18 161 44 186 36 15 119
11 156 -8z m-22 -502 c73 -47 102 -89 102 -148 0 -91 -48 -132 -155 -133 -78
-1 -102 6 -137 39 -25 23 -28 33 -28 93 0 59 3 72 27 100 25 29 108 89 123 89
4 0 35 -18 68 -40z"/>
</g>
</svg>
