<?xml version="1.0" standalone="no"?>
<!DOCTYPE svg PUBLIC "-//W3C//DTD SVG 20010904//EN"
 "http://www.w3.org/TR/2001/REC-SVG-20010904/DTD/svg10.dtd">
<svg version="1.0" xmlns="http://www.w3.org/2000/svg"
 width="384.000000pt" height="403.000000pt" viewBox="0 0 384.000000 403.000000"
 preserveAspectRatio="xMidYMid meet">
<metadata>
Created by potrace 1.15, written by Peter Selinger 2001-2017
</metadata>
<g transform="translate(0.000000,403.000000) scale(0.100000,-0.100000)"
fill="#000000" stroke="none">
<path d="M531 4007 c-37 -19 -65 -63 -65 -102 l0 -35 -66 0 c-84 0 -174 -16
-221 -41 -51 -26 -119 -97 -149 -155 l-25 -49 0 -1680 0 -1680 29 -58 c36 -70
89 -120 165 -156 l56 -26 1435 -3 1435 -2 358 357 357 357 0 1426 c0 1012 -3
1437 -11 1465 -18 65 -75 140 -137 182 -66 43 -142 62 -250 63 -68 0 -73 1
-67 19 7 24 -15 80 -42 104 -69 61 -185 5 -185 -88 l0 -35 -225 0 c-217 0
-224 1 -218 19 8 25 -16 80 -45 106 -15 14 -36 20 -70 20 -34 0 -55 -6 -70
-20 -29 -26 -53 -81 -45 -106 6 -18 -1 -19 -220 -19 l-227 0 5 22 c7 26 -13
77 -41 101 -26 24 -90 32 -121 15 -37 -20 -63 -62 -63 -102 l0 -36 -222 0
-221 0 -1 41 c-3 84 -100 135 -172 89 -37 -23 -66 -81 -57 -111 6 -18 -1 -19
-218 -19 l-225 0 0 41 c-1 79 -90 133 -161 96z m3131 -814 c2 -120 4 -704 6
-1298 l3 -1081 -23 -21 c-21 -20 -36 -22 -203 -25 -195 -3 -216 -8 -278 -67
-63 -57 -71 -89 -75 -281 -3 -161 -5 -177 -25 -198 l-20 -22 -1367 0 -1366 0
-44 23 c-24 12 -53 35 -64 50 -21 28 -21 32 -24 1583 l-2 1554 1740 0 1739 0
3 -217z"/>
<path d="M1530 2501 c-19 -13 -27 -140 -11 -170 11 -21 17 -21 247 -21 185 0
235 -3 231 -12 -3 -7 -87 -193 -187 -413 -214 -470 -207 -454 -189 -466 8 -5
60 -9 116 -9 95 0 104 2 117 23 8 12 99 218 202 457 l188 435 0 77 c1 50 -3
81 -12 90 -16 16 -678 24 -702 9z"/>
</g>
</svg>
